<svg id="proteinDrawer" viewBox="0 0 940 120" width="940" height="100%" background="#ff0000" xmlns="http://www.w3.org/2000/svg"><desc>Created with Snap</desc><defs><linearGradient x1="0" y1="0" x2="1" y2="0" id="linearGradientSjhboo3t6z"><stop offset="0%" stop-color="#ffffff"></stop><stop offset="100%" stop-color="#309321"></stop></linearGradient><linearGradient x1="0" y1="0" x2="1" y2="0" id="linearGradientSjhboo3t611"><stop offset="0%" stop-color="#309321"></stop><stop offset="100%" stop-color="#ffffff"></stop></linearGradient><linearGradient x1="0" y1="0" x2="1" y2="0" id="linearGradientSjhboo3t61a"><stop offset="0%" stop-color="#ffffff"></stop><stop offset="100%" stop-color="#309321"></stop></linearGradient><linearGradient x1="0" y1="0" x2="1" y2="0" id="linearGradientSjhboo3t61c"><stop offset="0%" stop-color="#309321"></stop><stop offset="100%" stop-color="#ffffff"></stop></linearGradient><linearGradient x1="0" y1="0" x2="1" y2="0" id="linearGradientSjhboo3t61l"><stop offset="0%" stop-color="#ffffff"></stop><stop offset="100%" stop-color="#309321"></stop></linearGradient><linearGradient x1="0" y1="0" x2="1" y2="0" id="linearGradientSjhboo3t61n"><stop offset="0%" stop-color="#309321"></stop><stop offset="100%" stop-color="#ffffff"></stop></linearGradient><linearGradient x1="0" y1="0" x2="1" y2="0" id="linearGradientSjhboo3t61w"><stop offset="0%" stop-color="#ffffff"></stop><stop offset="100%" stop-color="#309321"></stop></linearGradient><linearGradient x1="0" y1="0" x2="1" y2="0" id="linearGradientSjhboo3t61y"><stop offset="0%" stop-color="#309321"></stop><stop offset="100%" stop-color="#ffffff"></stop></linearGradient></defs><defs><filter id="glow" x="-20%" y="-20%" width="150%" height="150%"><feGaussianBlur stdDeviation="3 3" result="glow"></feGaussianBlur><feMerge><feMergeNode in="glow"></feMergeNode><feMergeNode in="glow"></feMergeNode><feMergeNode in="glow"></feMergeNode></feMerge></filter><style type="text/css"> text { font-family: arial; font-weight:bold; } </style></defs><g id="protein" transform="matrix(1,0,0,1,0,10)"><rect x="0" y="33" width="840" height="6" fill="#bbbbbb" style=""></rect><g id="B-0-0" style="cursor:pointer" transform="matrix(1,0,0,1,0,0)"><rect x="1" y="0" width="55" height="72" fill="rgba(255,255,255,0)" style=""></rect></g><g id="B-0-1" style="cursor:pointer" transform="matrix(1,0,0,1,0,0)"><rect x="57" y="0" width="31" height="72" fill="rgba(255,255,255,0)" style=""></rect><rect x="57" y="31" width="31" height="10" fill="#ff00ff" style=""></rect></g><g id="B-0-2" style="cursor:pointer" transform="matrix(1,0,0,1,0,0)"><rect x="89" y="0" width="91" height="72" fill="rgba(255,255,255,0)" style=""></rect></g><g id="B-0-3" style="cursor:pointer" transform="matrix(1,0,0,1,0,0)"><rect x="181" y="0" width="46" height="72" fill="rgba(255,255,255,0)" style=""></rect><rect x="181" y="31" width="46" height="10" fill="#00ff00" style=""></rect></g><g id="B-0-4" style="cursor:pointer" transform="matrix(1,0,0,1,0,0)"><rect x="228" y="0" width="113" height="72" fill="rgba(255,255,255,0)" style=""></rect></g><g id="B-0-5" style="cursor:pointer" transform="matrix(1,0,0,1,0,0)"><rect x="342" y="0" width="21" height="72" fill="rgba(255,255,255,0)" style=""></rect><rect x="342" y="31" width="21" height="10" fill="#ff00ff" style=""></rect></g><g id="B-0-6" style="cursor:pointer" transform="matrix(1,0,0,1,0,0)"><rect x="367" y="0" width="37" height="72" fill="rgba(255,255,255,0)" style=""></rect><rect x="367" y="31" width="37" height="10" fill="#00ff00" style=""></rect></g><g id="B-0-7" style="cursor:pointer" transform="matrix(1,0,0,1,0,0)"><rect x="405" y="0" width="69" height="72" fill="rgba(255,255,255,0)" style=""></rect></g><g id="B-0-8" style="cursor:pointer" transform="matrix(1,0,0,1,0,0)"><rect x="475" y="0" width="21" height="72" fill="rgba(255,255,255,0)" style=""></rect><rect x="475" y="31" width="21" height="10" fill="#ff00ff" style=""></rect></g><g id="B-0-9" style="cursor:pointer" transform="matrix(1,0,0,1,0,0)"><rect x="499" y="0" width="27" height="72" fill="rgba(255,255,255,0)" style=""></rect><rect x="499" y="31" width="27" height="10" fill="#ff00ff" style=""></rect></g><g id="B-0-10" style="cursor:pointer" transform="matrix(1,0,0,1,0,0)"><rect x="530" y="0" width="13" height="72" fill="rgba(255,255,255,0)" style=""></rect><rect x="530" y="31" width="13" height="10" fill="#ff00ff" style=""></rect></g><g id="B-0-11" style="cursor:pointer" transform="matrix(1,0,0,1,0,0)"><rect x="544" y="0" width="77" height="72" fill="rgba(255,255,255,0)" style=""></rect></g><g id="B-0-12" style="cursor:pointer" transform="matrix(1,0,0,1,0,0)"><rect x="622" y="0" width="30" height="72" fill="url('#linearGradientSjhboo3t6z')" stroke="#309321" style="stroke-width: 0.5;"></rect><rect x="622" y="0" width="30" height="72" fill="url('#linearGradientSjhboo3t611')" stroke="none" style="stroke-width: 0.5;" transform="matrix(0.7667,0,0,0.9028,148.6333,3.5)"></rect><text x="633" y="36" fill="#ffffff" style="filter: url(&quot;#glow&quot;); text-anchor: middle; font-size: 12px;" transform="matrix(0,1,-1,0,669,-597)">ANK</text><text x="633" y="36" fill="#000000" style="text-anchor: middle; font-size: 12px;" transform="matrix(0,1,-1,0,669,-597)">ANK</text></g><g id="B-0-13" style="cursor:pointer" transform="matrix(1,0,0,1,0,0)"><rect x="656" y="0" width="34" height="72" fill="url('#linearGradientSjhboo3t61a')" stroke="#309321" style="stroke-width: 0.5;"></rect><rect x="656" y="0" width="34" height="72" fill="url('#linearGradientSjhboo3t61c')" stroke="none" style="stroke-width: 0.5;" transform="matrix(0.7941,0,0,0.9028,138.5588,3.5)"></rect><text x="669" y="36" fill="#ffffff" style="filter: url(&quot;#glow&quot;); text-anchor: middle; font-size: 12px;" transform="matrix(0,1,-1,0,705,-633)">ANK</text><text x="669" y="36" fill="#000000" style="text-anchor: middle; font-size: 12px;" transform="matrix(0,1,-1,0,705,-633)">ANK</text></g><g id="B-0-14" style="cursor:pointer" transform="matrix(1,0,0,1,0,0)"><rect x="695" y="0" width="29" height="72" fill="url('#linearGradientSjhboo3t61l')" stroke="#309321" style="stroke-width: 0.5;"></rect><rect x="695" y="0" width="29" height="72" fill="url('#linearGradientSjhboo3t61n')" stroke="none" style="stroke-width: 0.5;" transform="matrix(0.7586,0,0,0.9028,171.2586,3.5)"></rect><text x="705.5" y="36" fill="#ffffff" style="filter: url(&quot;#glow&quot;); text-anchor: middle; font-size: 12px;" transform="matrix(0,1,-1,0,741.5,-669.5)">ANK</text><text x="705.5" y="36" fill="#000000" style="text-anchor: middle; font-size: 12px;" transform="matrix(0,1,-1,0,741.5,-669.5)">ANK</text></g><g id="B-0-15" style="cursor:pointer" transform="matrix(1,0,0,1,0,0)"><rect x="728" y="0" width="30" height="72" fill="url('#linearGradientSjhboo3t61w')" stroke="#309321" style="stroke-width: 0.5;"></rect><rect x="728" y="0" width="30" height="72" fill="url('#linearGradientSjhboo3t61y')" stroke="none" style="stroke-width: 0.5;" transform="matrix(0.7667,0,0,0.9028,173.3667,3.5)"></rect><text x="739" y="36" fill="#ffffff" style="filter: url(&quot;#glow&quot;); text-anchor: middle; font-size: 12px;" transform="matrix(0,1,-1,0,775,-703)">ANK</text><text x="739" y="36" fill="#000000" style="text-anchor: middle; font-size: 12px;" transform="matrix(0,1,-1,0,775,-703)">ANK</text></g><g id="B-0-16" style="cursor:pointer" transform="matrix(1,0,0,1,0,0)"><rect x="759" y="0" width="81" height="72" fill="rgba(255,255,255,0)" style=""></rect></g><line x1="11" x2="11" y1="0" y2="72" stroke="#0000ff" id="i-1-11" style="stroke-width: 1;"></line><line x1="442" x2="442" y1="0" y2="72" stroke="#0000ff" id="i-1-442" style="stroke-width: 1;"></line><line x1="475" x2="475" y1="0" y2="72" stroke="#ff0000" id="i-2-475" style="stroke-width: 1;"></line><line x1="544" x2="544" y1="0" y2="72" stroke="#ff0000" id="i-2-544" style="stroke-width: 1;"></line><line x1="573" x2="573" y1="0" y2="72" stroke="#000000" id="i-0-573" style="stroke-width: 1;"></line><line x1="645" x2="645" y1="0" y2="72" stroke="#0000ff" id="i-1-645" style="stroke-width: 1;"></line><line x1="694" x2="694" y1="0" y2="72" stroke="#000000" id="i-0-694" style="stroke-width: 1;"></line><line x1="761" x2="761" y1="0" y2="72" stroke="#000000" id="i-0-761" style="stroke-width: 1;"></line><line x1="794" x2="794" y1="0" y2="72" stroke="#000000" id="i-0-794" style="stroke-width: 1;"></line><line x1="841" x2="841" y1="0" y2="72" stroke="#000000" id="i-0-841" style="stroke-width: 1;"></line><line x1="0" x2="840" y1="100" y2="100" stroke="#dddddd" style="stroke-width: 0.1;"></line><line x1="0" x2="0" y1="100" y2="104" stroke="#333333" style="stroke-width: 0.5;"></line><text x="1" y="108" style="font-weight: normal; font-size: 8px; color: rgb(51, 51, 51);">0</text><line x1="50" x2="50" y1="100" y2="102" stroke="#888888" style="stroke-width: 0.1;"></line><line x1="100" x2="100" y1="100" y2="104" stroke="#333333" style="stroke-width: 0.5;"></line><text x="101" y="108" style="font-weight: normal; font-size: 8px; color: rgb(51, 51, 51);">100</text><line x1="150" x2="150" y1="100" y2="102" stroke="#888888" style="stroke-width: 0.1;"></line><line x1="200" x2="200" y1="100" y2="104" stroke="#333333" style="stroke-width: 0.5;"></line><text x="201" y="108" style="font-weight: normal; font-size: 8px; color: rgb(51, 51, 51);">200</text><line x1="250" x2="250" y1="100" y2="102" stroke="#888888" style="stroke-width: 0.1;"></line><line x1="300" x2="300" y1="100" y2="104" stroke="#333333" style="stroke-width: 0.5;"></line><text x="301" y="108" style="font-weight: normal; font-size: 8px; color: rgb(51, 51, 51);">300</text><line x1="350" x2="350" y1="100" y2="102" stroke="#888888" style="stroke-width: 0.1;"></line><line x1="400" x2="400" y1="100" y2="104" stroke="#333333" style="stroke-width: 0.5;"></line><text x="401" y="108" style="font-weight: normal; font-size: 8px; color: rgb(51, 51, 51);">400</text><line x1="450" x2="450" y1="100" y2="102" stroke="#888888" style="stroke-width: 0.1;"></line><line x1="500" x2="500" y1="100" y2="104" stroke="#333333" style="stroke-width: 0.5;"></line><text x="501" y="108" style="font-weight: normal; font-size: 8px; color: rgb(51, 51, 51);">500</text><line x1="550" x2="550" y1="100" y2="102" stroke="#888888" style="stroke-width: 0.1;"></line><line x1="600" x2="600" y1="100" y2="104" stroke="#333333" style="stroke-width: 0.5;"></line><text x="601" y="108" style="font-weight: normal; font-size: 8px; color: rgb(51, 51, 51);">600</text><line x1="650" x2="650" y1="100" y2="102" stroke="#888888" style="stroke-width: 0.1;"></line><line x1="700" x2="700" y1="100" y2="104" stroke="#333333" style="stroke-width: 0.5;"></line><text x="701" y="108" style="font-weight: normal; font-size: 8px; color: rgb(51, 51, 51);">700</text><line x1="750" x2="750" y1="100" y2="102" stroke="#888888" style="stroke-width: 0.1;"></line><line x1="800" x2="800" y1="100" y2="104" stroke="#333333" style="stroke-width: 0.5;"></line><text x="801" y="108" style="font-weight: normal; font-size: 8px; color: rgb(51, 51, 51);">800</text><rect x="0" y="90" width="840" height="110" fill="rgba(255,255,255,0)" style="cursor: pointer;"></rect></g><g id="markGrp"></g><g id="hlGrp"></g></svg>